<svg width="1344" height="297" viewBox="0 0 1344 297" fill="none" xmlns="http://www.w3.org/2000/svg">
<path fill-rule="evenodd" clip-rule="evenodd" d="M1258.08 21.9719H1344V296.535H1275.27L1179.87 171.037L1163.57 149.601V21.9719L1258.08 147.487V21.9719Z" fill="white"/>
<path fill-rule="evenodd" clip-rule="evenodd" d="M1137.13 22.2056H1055.44V219.548L1072.64 296.769H1137.13V22.2056Z" fill="white"/>
<path fill-rule="evenodd" clip-rule="evenodd" d="M1029.12 220.011H956.89V21.541H879.177V220.011V296.104H1046.26L1029.12 220.011Z" fill="white"/>
<path fill-rule="evenodd" clip-rule="evenodd" d="M847.922 21.5484L733.59 21.5484L708.07 93.7193L770.604 93.7193L770.604 124.314L697.251 124.314L681.688 168.326L681.688 194.916L770.604 194.916L770.604 224.725L681.688 224.725L681.688 296.112L795.429 296.112L847.922 296.112L847.922 144.887L847.922 21.5484Z" fill="white"/>
<path fill-rule="evenodd" clip-rule="evenodd" d="M703.312 21.913L623.769 21.4189L573.438 197.002L609.133 287.316L703.312 21.913Z" fill="white"/>
<path fill-rule="evenodd" clip-rule="evenodd" d="M500.319 296.59L490.623 261.246L411.144 261.813L427.613 198.739L473.255 198.413L449.096 113.468L472.372 22.2774L479.265 39.0406L584.913 295.986L500.319 296.59Z" fill="white"/>
<path d="M219.3 274.772C231.13 282.005 245.558 287.495 262.878 291.893C297.312 300.638 326.262 298.382 349.728 285.128C373.266 271.595 389.089 248.862 397.198 216.927L446.913 21.1552L363.606 0L314.42 193.689C310.4 209.518 299.921 215.281 282.982 210.98C276.765 209.401 271.561 206.835 267.37 203.281C267.06 203.018 266.756 202.751 266.458 202.477C259.792 225.825 247.707 246.519 230.203 264.558C226.679 268.192 223.044 271.596 219.3 274.772Z" fill="white"/>
<path d="M118.29 5.16406C157.721 5.16406 190.624 18.8862 217.002 46.3304C243.651 73.5029 256.976 107.333 256.976 147.82C256.976 188.307 243.651 222.272 217.002 249.717C190.624 276.889 157.721 290.475 118.29 290.475H0V5.16406H118.29ZM118.29 211.403C134.878 211.403 148.475 205.561 159.08 193.877C169.957 181.921 175.396 166.569 175.396 147.82C175.396 129.071 169.957 113.854 159.08 102.17C148.475 90.214 134.878 84.2361 118.29 84.2361H85.6586V211.403H118.29Z" fill="white"/>
</svg>
